<mxfile host="app.diagrams.net" agent="Mozilla/5.0 (Windows NT 10.0; Win64; x64) AppleWebKit/537.36 (KHTML, like Gecko) Chrome/132.0.0.0 Safari/537.36" version="26.0.5">
  <diagram name="Page-1" id="QJweULGZOIaxvXJcY6oB">
    <mxGraphModel dx="2514" dy="2054" grid="1" gridSize="10" guides="1" tooltips="1" connect="1" arrows="1" fold="1" page="1" pageScale="1" pageWidth="827" pageHeight="1169" math="0" shadow="0">
      <root>
        <mxCell id="0" />
        <mxCell id="1" parent="0" />
        <mxCell id="FxP8xfBwRRLJs2oWTBeH-71" value="" style="rounded=1;whiteSpace=wrap;html=1;dashed=1;fillColor=#f5f5f5;strokeColor=#666666;gradientColor=#b3b3b3;" vertex="1" parent="1">
          <mxGeometry x="250" y="-110" width="350" height="570" as="geometry" />
        </mxCell>
        <mxCell id="FxP8xfBwRRLJs2oWTBeH-1" value="BankAgent Ch5" style="rounded=1;whiteSpace=wrap;html=1;verticalAlign=top;fontStyle=1;fontSize=14;" vertex="1" parent="1">
          <mxGeometry x="290" y="160" width="270" height="200" as="geometry" />
        </mxCell>
        <mxCell id="FxP8xfBwRRLJs2oWTBeH-25" value="" style="rounded=1;whiteSpace=wrap;html=1;" vertex="1" parent="1">
          <mxGeometry x="330.02" y="200" width="200" height="90" as="geometry" />
        </mxCell>
        <mxCell id="FxP8xfBwRRLJs2oWTBeH-8" value="InvoiceQueryByReference" style="rounded=1;whiteSpace=wrap;html=1;" vertex="1" parent="1">
          <mxGeometry x="345.02" y="248" width="170" height="30" as="geometry" />
        </mxCell>
        <mxCell id="FxP8xfBwRRLJs2oWTBeH-59" style="edgeStyle=orthogonalEdgeStyle;rounded=0;orthogonalLoop=1;jettySize=auto;html=1;entryX=0;entryY=0.5;entryDx=0;entryDy=0;" edge="1" parent="1" source="FxP8xfBwRRLJs2oWTBeH-9" target="FxP8xfBwRRLJs2oWTBeH-34">
          <mxGeometry relative="1" as="geometry" />
        </mxCell>
        <mxCell id="FxP8xfBwRRLJs2oWTBeH-9" value="InvoiceMultiPayment" style="rounded=1;whiteSpace=wrap;html=1;" vertex="1" parent="1">
          <mxGeometry x="340" y="303" width="170" height="30" as="geometry" />
        </mxCell>
        <mxCell id="FxP8xfBwRRLJs2oWTBeH-2" value="" style="shape=image;verticalLabelPosition=bottom;verticalAlign=top;imageAspect=0;aspect=fixed;image=data:image/png,iVBORw0KGgoAAAANSUhEUgAAAUIAAACdCAMAAAD2bIHgAAAA1VBMVEX///8xjt7///0wjt///v/8//8vjeIwjN7///sagtI3j9rn9PWUv97l8fl7sNkmiN0jhdLS6PNVmtY2jNZgotxHltj///j5//wxjOPY6/NGltb6//hWnNQpidnx+vpgoeDM4vCdx+SMvOIkhNtio9ZBkNXf8vUzi+aexejw9/qoz+Ss0OomiNJuqdzJ4O7G4el/tdze7uq71uZGld5vpt0xhsh+ttvK5OqtyOXA2PBOlcuIt+RFi8aw2OukzelwqtSz2fB9r+Pl+/qDr9GezOIMdtHP4ucTyMkBAAAVMElEQVR4nO1dCXvaOLe2ZWvBhMjYwcaAPIAxWTAkQ5tmMpkmae7c+f8/6R7JQNhstjSd77t6n6dtQhxZfn10dqmGoaGhoaGhoaGhoaGhoaGhoaGhoaGhoaGhoaGhoaGhoaGhoaGhoaGhoaGhoaGhoaHxsWAI/kLIwIZhI/gX/eoJ/YcBIYwxYkhyZxgYM4aY5vAwYBaw+deSRvT/i8JcdIz5X+iAZ1+sV1ytj/rnA6/RaHmDl/5oUouRsRi17N67rzkE6JDZfxSwXIJz2PIbe99fBQIxA8UX3/Yv/ArnnFALQIXgiWidvw5h4LZ8pKIRbakzA6kEZlfYx2GFNvnBsWQcA6m1AIwp8VPLLwz3/WVm48BA0Z2TcEEtcwGg0TQp5/S3UYzLpKINN8Sh1KGs5KqjgD96wEKAGMTV7vSqL3H1/Fqvtg95GhROvYSbqbnMoEmppb51LO7+Xi35ddy9a9zf31/0hrMPzo7DdLF8UW/20SqFGEXlGFZjEAmGbBtL27jfw8PFCIX1P8YtUeGCU0rhb86zL1973dAAyQhhgZUNEOAATTsJBakzqWmtkKgkkTZJdn6b9WKM1lWUlHmG6p3WVbdWq02e7p+ULBr8KCRPc9uFwhZIPxfNpL1KYdVPRDn8Vqd/E8EKZLh05Sw9BCzhqP8FVuDqk8MfGO7bg3oZpQJpB7UXvsrbGmhTvA3I5V81tvFeQXUYj/evYSB/gFn1W1qV87aOAlCI5xQ2mvLlWdnaDauOSWgh4Ffg501BK62nbsiCPaVQLkEiB15lAb5vmg5PvJs4YGVDMXyTwd1LGLQoH70mjulV/wiD9dsjY5T+jrCSThsY/iOrgWzmL3HtvahPrI2fLD6xRB+9S6ED1zqkskmhonYr6Ex2lAZ3vREsiFJBRLDk4a/HjuCW5M8CHhypu+SrmFFCYGny1ggzvD3KkDMO75JSEZS4iFOH8MeRO46NFUsPQti9ryEW5M8ubdoff8JT7xpwO+jTfJYIt/IH2KSw7GUvw6KJdxuULmbE4FGGF661IMChTUWgZTap8z6UL1rdAG+VRNCS1Y5wyI4nE9UrbtLGW8MUaYRCtuxr4L++w+CTzM8y37sK7bYx6KF/A4WSj6TfLosMkM3CHhfvjy/1QK6WieksLRUQz8rd9fah2DDlzV1CyJ+rftNKRl1OnEt/Eiy9WMQeO6Bp2aTS7/XuzMoFQ0H9PjYKldViStvA3ykMd1BYMML7LXJG+EtczCDcpjpITGuuA8ERrghv/AQ+zd24A18vjWUR3upuHSNKQWHuoJAP2FgQK43HArSNlU2WXgZD4xtQB8EkqcIanvJKPUChNzHOt+PFz9fMl2/bf3yzZE6sEgqt5peCG4y91OeUzLUu4Z0YB1s9dOmqPPhNuMwxHUIdKvwfo+FCPBAeTn+kgsjlnIspdZ/BMK+4JAyz4V/NXQQ6JH17dC3THVUTGAuURBYZC63A4nvpCqJJBRQiGyZiCt/1noreenWmdgbbY0GYX7AXhU7T2zo+ePYI17r9RgVYzI0LHUjlsu3aMJjCspK3IcShfDyNA/RueW2wRSycvAiQHrWkHZ/wsYxWlmYUonbDau7Qg5aZ3IJ1pFYDPXF5reU00yGa34nVXPkVLOQIh/GTWYngu8cvBtqOmqum0/wtTwZtIAztvSi8NBWFmwNIAwmiEj4OKnP7zM+2x6U4eMxAnOVFqZWMH8C22Pg9xkQGbmPWRrW7+2Yu+SCs/Le3VfuEvwrHbJZTaIq+cQZut5i+uerFWjCgF9rBnMJMjThJvJYHM+lLD7QrtooIzEpSqKSwIBC0jT2l0GpsTUTknr6MbvE0I1RGCrB+oi0XMpt9ryhdRyyHN26lx8IC6Y7PyZEvg4HIsdoLPL8l7TRJrb/i9wAKbEAvcazSZUwdIi7Qgwu6u4HOxGxtEDPpGzPPBtXusZSGLk+/pJw8wPi28WgVUIhmFNKLXXkYoJCWUGiS7Qt5mczIIY5UZGBSNm8WBMaD60jxIdRPzuJ1d3cZ2J6mIndxmuL23bUBzVXPdgggmCizUWt/EaZT6bbTJfNUmZsUdA1eIXzdTa6M2BNXajWd9Qse6xMpBFmsZ0RJiONuhvcMDVPzUpkKKqZB6XTayLgeKCVGK1PpjM/nyGKPrIcPmxQmD7CMYfF+RaPk/XOSfpllgbAxljGAMalchSwSWVeK92BSwMsnUhjaGN1wdTOLjzbHxxdNU1lHmkawqEuzamB32ZkLi9mdSk96MXXWE6ZZ6qbC0yavqC4vux/Gy/6308yukFLSiE1acswJSGHb6CXZNUIP9wVZts+kUI2R5tOl51K1vX8u//QkvTKu9Yd7JHdBLX53zcozW7Yl6K1cAOXbs3ifxX82IUbsG9+T1R/616F8OITDP2+QHVTPuvBd2Du7xWjQK9Asn0whZldC3sx0Gqufg6WIhFqBTZNHbI8cJ8IBBGBXLFhO2KA+3xUpWfxHYJzDZSSNjdZaFoOfqTuDA1F3o8DOhw4ZyHzPiwvm9OkURioBRUwfr/ihMMvBbE2JqUy17xwKnDg7uIaAeznGG+6OjPkAo9dEeuWPxqtYU5vUnxHF0NSts0DllcBYoSv4QQE/h1CIP2Ahs9hXKSAQgWXpAdX3CIIBMkEvz+Sk98gqgtpC0s+ZJ/uQjY2/eakAwq3F4DqIUtC4YoBDb8P74TfzMhd7vX+WXgHcgw1f/qwV5ooPo7DML9yLQsOIWzMKr5cpxAFuUaWoaKu9Z1Z2A3aAU1LmUwNhvFULYu8Svs4ie00Tqiu8udEIg3rnvn87rEXT8X0/LmbnEArRR1AY5hQ2fbyiw9iUqyewRH3/Et0qwEZPubNOygogMq6y8Ik7TcvtGW1n82qnUp8Nx0KZN/fStPF1VAXFW1j1+mQKEY7TmRSulMXs0FMhAuVPzDiySo4D46VpFqtCuClNhwF75c6ljOaC0Za6gAWx56znYfZPrNQhw4Uv9pMXMkLXQs2UdFY/n8wyhP6w4Df3Gjstcapl2lxmEroZrHUnqbP4L7p5OaUevMGDap6fvZCBKyWF4JOtWORzks/i7vhqPwunpcZEMsiCKjimTYf3mNHbdrVlJkP7sLLxZ0uh0ZcUUpNPVz4Ps7wsorJKR+OulELaqqIAX1DqOE2wxsDlphA6oEpeWWlda/OZPtMvhKmFPF897tvSxyGaijwP1mHH9w3gdqNYEVIqgEGGJMvEciH8OSvgm9+hfy+F4OPDxFVuQPSXozJmPOXPw59PaLhiVbeIQIum/CIOEFaL10luGBuue9ULsjuHqcJPpRCDq+Xn0pYtL1gUhA1TFgbMbHgChWhSTKGZnMcBRjfSlllijFn4UuRAWn7cPsiteqfwt52NYsdTaNu28lWGKVzpqOL00hggErC8wUcDT+OU3rFnd/tCJiD1Twj8vEkmjZbzJW6DVStMiYlhYavXViwoNH8mhUbeCnKrbAaxhBcuSxsypsrTofT8pMbJvijQhTR7DmDgui8z3cTtBijurLdJvIPXD+so/DQKEav2ucrkUZrWVoNgpNI3FhGjfVI0hRiTraxYJJvI9GLkyAYdJ+mhtvGd08I4JpnukWpbnv0nURjW7zIui0IyMImYsRKaoB+KQup2d7QalUOGvtsWpjeUhmyYNi3wWegYVsCbIMXGm9/s2X02w4eak2FtC6KoPu2Nv1TAAlJCHId31gMQhFSei9KsdlJXrrORrpatJJW7WJYchp4g1CFWq2oE6E4UEggU9g6bw8dRCPZga2Mc5wkX0pVRvaU0+Ravp7KkZpIDX6bxSRRmmwGy1XSfGZhiVm1Id6ZpVuooMOrlLvjZYbf9QCmkdNvisByZD3H8mUftdTezgSxuqd8kKT6JQnezF457URBieMhUmhriQOhhB7Hnl+VlgcLjdOFeFJYGeErItvTTSPIoUWGd8wwCgddbl9F1LsYkPWTmm3CtZWbgxqYLixh8wKDWUuYDnCn4xui52+3OO4VH+oUnU7gTcFXjR5cF6w2Gcwrpaj3lYLgrCxni8HQi35VtRC0X1AjEeGOIJVmUlVdJxdlhGcsDKGQqW3paf6HlJOlzvBaDomtf+Yv0RClcpYZk5zGTzSysKy7BFlsW6cTg2+COVd7s8HPNiVlCoWoK2YKcu7zJ3lfbPlo3obFSuZxLoXPaVoJ59yHclBLRmAQhg5jIePTz1hHaqmLwbp75Ru/6GoWjn5hmKO0v9J1Lt7IFXJnkTHCrmXdNElIBT2154LlXlJY2Hu5EYyZ+pElo1o9lwgXczBs3f70QlyOMWVTmzygk05+YZiilsGl5b9Xt+D2aPJ69eK6YdbSBnn9E75uO2HUrN+l+7aC5r2OQvwiQQvdlCCsW4cAO+7LEJLO8913gNAB9vqv9VdQPCzOXKNwdnZR3uTqNov67vAoRRs9eRZXpwOEVo3cK27ZyrS3K6+v3PAjfeO6fJp2JIhD+xGMuy4KmQ7LvcqcKOoMgb0el2a/9PF1YnvinxQHefGQWPgxkp68cRhZs531UxtdZjPxY1s21E1eXsu+Nt77LYpvscmC1Tu5EW2byDK8MB93iBM0clhMeFmV+Zu0EYRuxV5+o3mtZ7VxQ+JQPIDdonOBaTzPqXHrTMJj1dBhTXyUFpTvTU32Ocbrbd4Dl+PNc61NrJwiHIQ7qrTzZSTrzyiwyRjx/1At8QqYG1ZLkYhqzfGMZQu0rPm95r/TVXgxjXF6fUuBXxr838a/aLAxjmJeaKP+OkOoBZkaXK5+H+tUTKMTx/9SxSgExudlm+DXLnReLun2pSxgaiZ1CaJl8+m8uP82Ql8Ats2OwnEJWne1rWqvrHYj3NkP4YkpzrWcR4qr2VIbr2c79UGB73Df7sI6UX0Aha7dyy8mjPOGAAqOTF4MgAjtl5+9ie0cQ3vF84wklhOelLraPIgTGB7O1sTd+AYVo3n+V/W2ESvPb7GpWT0vi43eMo/cuhEkLBD3ffGG5VyHEvGD+B9k+FPKRcVj16ZdQGNbzCIGPF35Nzc2dayFzdScYZbnhkMV3mUpKO47VpInK/iEbnxVVPZdBHXGwe/8rKGRVP7+lFy7u6eXGnqbxgcp8DSBAr6mwHJnOIjCtynO+H5Z9z3Z41ApOc3zw3X8FhUE4o7D13rU3ymWE8t4p1RMjCOqDijnf9ec3K1OkMlfooUJ37SlTSAra+sue5xeYExTmT2Ol72mvWLWxWxZNq8EJC7n6lMl90XITHzEJTyegFQIp92m+AbAc4PR77b1Pz5jjA1OuxNtvDTDjOpdCq7HoALfZ2az8Js5POYWnX7mcFTeJaSUNtccKAr14cLmHDDqCipvDw6MPTLnuS6HcwKOmbLXCxaLF1bm2r0xPoDD256lAasouGtVeGbIxT3dtyjNVfbYTHq5GPnQh70vhq2oOIvRi0dQAPnZP0HyvbTo09moMQmrHHATeS7cNruQosm+H8Kc2eEuyo531hUnKM9W5FJpisn2b/Y7n+fzohH1V77yZnaP5tmSEUZxa+WIjA1CRe3DIIIrofUMrW5vxdV5LvjQrN8qOwDtCf+zMss5xuDk2fo05qas1Sxz+jNiCQpw3rEutz1/2CfTl4RP9RNxhe2XnwDSR8m2mDwyrzBlDr1lJ68IyqD88xhv4FVI4yKN/CPAWW3TU1va7GYeUv+xhFrHRPueUJC/L3WDMCMYuMd2v1dlxFciYrNZGi2G5r3ueALOKz96DBzHw3/n5CkQ0VlqT1FFCRLUfUvESl5+FxOR+Gk8lapNBPDtPRo1i1Frc7eF8GzkY4262hxZU0xcv4VHZys+mELObysx9Wd8MilkN1qDarkx5a1i6lhFrP4q8quRcdqrLp3uwuhflEY4s+Uf+ngVaakoD/h9AodHu5/vEZP/92moFmZkIZ+F8jMqmw67vOJ31UIhGtNxiwlhg5BvzbCy7and71Orxuf/2LswH4aDyUymF1PQKy08M5Scb4a6naicQw0r/bzUjggPMXiE6g9EoJY4YRHJ7HUbL5//JdhJwVMJRyonc3Q6DNb3rlSNCbJnyR7JjArMopXsxSCEqitTaP4VCcnIFjxZSqIQCGdXHQWVWLqdWcrdF2dnsNVvIIXXHEQsCFiJ7VgOEkUJYnPFjqzLLp/pEXFxvfW751qJ0X3eGp9FRpmSFQlpwyMreFDpWBxchrkaT3iBVa09Z46boxPbmpOUhKxVz3l9iZdlg9JZnsPIyKnyFH/opl26LmjQRP+ICP5wFIIP72WKSgTtzdEz0cRTKBmC/CJkQnMj1S/JqBjAoK+WbN8GoniYq3wB0W0SI1OtNozh/E9X6zXkquCPNtsolULcX2uHWDCmEkT7deehU/qrEuKrOWjuVwg/o7Co4PG5lvlT6ufxl60k/+YSqY7llff5rYJ2F6zppq+EIt8JnRTkgWB7E0poUn+j5u2vubFywHFVbuTrOm1nM+POa42bTNrn7XNyWDiqsfZPl9an8eiKPnwKBchxz9X0kP2JWeLRseA3+564Tf+BFWa43MYJTkpSfT6HIXmoFh+blt5GG5zzzl/s2QPWpLP4ygbwxYay4WhUwVD3nO2p2jsNBBMH7OaV8LU9LUlsw6MWu4hkOW9udmt+3bI1eQ36Go2Nx4Z/XVSK56H2hfDty9yVLrKX2F2t+gq3KBFpCtEZYdkcUvnfMIHau/3Cl87N2wKUjz5BUHXIJfRrODsQ6kLilCWN14JRskx7szDCFqTpw1HIPOohUqq2mPABTiKTyMtpoVi+YWBDduRAC0xVtaslmEnkeX2d6vVt9IRSg4Zn0IOdnCM9lGiZMTJG0etXize77QkphwrmAx/ttlxSydksee5vx/129Latmu47DFcJJvfPeQyylQ3q/e0wMsfBxnLpCOtrzh6eU84rvXdVQEJYfBaQmJo+lNsJ/+g2fLzmIljyHkov0rgve93ZzfghACuO6QrTlILJVyMOX5ZX/3LK1z+tRfQeGVQzunTQiqPgw8xUwebyZEf/TO/f8ijqPGdhLvfHZpCpDFrTHKevImEVFOHo8Gzcc1S4Ko2SNi/5rBO9Snh3w4Yd+/xuBr6tR/XYyqUfV7YHIHmAMt+OhHOYWXucR2f3/XIDPwtqLJWuj4NgYIv/vTuaD7nGS0H8NpM2wQSvKQBsCZGyg4zoQZZjOZJer/P8Cjo/l/htwdBD2QeNoaGhoaGhoaGhoaGhoaGhoaGhoaGhoaGhoaGhoaGhoaGhoaGhoaGhoaGhoaGhofDj+D8YRo9gYNFKNAAAAAElFTkSuQmCC;container=0;" vertex="1" parent="1">
          <mxGeometry x="304" y="164" width="41.02" height="20" as="geometry" />
        </mxCell>
        <mxCell id="FxP8xfBwRRLJs2oWTBeH-7" value="InvoiceQueryByCustomer" style="rounded=1;whiteSpace=wrap;html=1;" vertex="1" parent="1">
          <mxGeometry x="345.02" y="210" width="170" height="30" as="geometry" />
        </mxCell>
        <mxCell id="FxP8xfBwRRLJs2oWTBeH-27" style="edgeStyle=orthogonalEdgeStyle;rounded=0;orthogonalLoop=1;jettySize=auto;html=1;entryX=0;entryY=0.25;entryDx=0;entryDy=0;" edge="1" parent="1" source="FxP8xfBwRRLJs2oWTBeH-11" target="FxP8xfBwRRLJs2oWTBeH-25">
          <mxGeometry relative="1" as="geometry" />
        </mxCell>
        <mxCell id="FxP8xfBwRRLJs2oWTBeH-11" value="Modulos de autoservicio" style="rounded=1;whiteSpace=wrap;html=1;strokeColor=light-dark(#182fe2, #ededed);" vertex="1" parent="1">
          <mxGeometry x="-100" y="60" width="120" height="60" as="geometry" />
        </mxCell>
        <mxCell id="FxP8xfBwRRLJs2oWTBeH-28" style="edgeStyle=orthogonalEdgeStyle;rounded=0;orthogonalLoop=1;jettySize=auto;html=1;" edge="1" parent="1" source="FxP8xfBwRRLJs2oWTBeH-12" target="FxP8xfBwRRLJs2oWTBeH-25">
          <mxGeometry relative="1" as="geometry">
            <Array as="points">
              <mxPoint x="170" y="449" />
              <mxPoint x="170" y="245" />
            </Array>
          </mxGeometry>
        </mxCell>
        <mxCell id="FxP8xfBwRRLJs2oWTBeH-12" value="CajaSap" style="rounded=1;whiteSpace=wrap;html=1;" vertex="1" parent="1">
          <mxGeometry x="-100" y="419" width="120" height="60" as="geometry" />
        </mxCell>
        <mxCell id="FxP8xfBwRRLJs2oWTBeH-15" value="WS.ARCentralizer_V3.0" style="rounded=1;whiteSpace=wrap;html=1;verticalAlign=top;fontStyle=1;fontSize=14;" vertex="1" parent="1">
          <mxGeometry x="290" y="-40" width="270" height="170" as="geometry" />
        </mxCell>
        <mxCell id="FxP8xfBwRRLJs2oWTBeH-16" value="" style="shape=image;verticalLabelPosition=bottom;verticalAlign=top;imageAspect=0;aspect=fixed;image=data:image/png,iVBORw0KGgoAAAANSUhEUgAAAUIAAACdCAMAAAD2bIHgAAAA1VBMVEX///8xjt7///0wjt///v/8//8vjeIwjN7///sagtI3j9rn9PWUv97l8fl7sNkmiN0jhdLS6PNVmtY2jNZgotxHltj///j5//wxjOPY6/NGltb6//hWnNQpidnx+vpgoeDM4vCdx+SMvOIkhNtio9ZBkNXf8vUzi+aexejw9/qoz+Ss0OomiNJuqdzJ4O7G4el/tdze7uq71uZGld5vpt0xhsh+ttvK5OqtyOXA2PBOlcuIt+RFi8aw2OukzelwqtSz2fB9r+Pl+/qDr9GezOIMdtHP4ucTyMkBAAAVMElEQVR4nO1dCXvaOLe2ZWvBhMjYwcaAPIAxWTAkQ5tmMpkmae7c+f8/6R7JQNhstjSd77t6n6dtQhxZfn10dqmGoaGhoaGhoaGhoaGhoaGhoaGhoaGhoaGhoaGhoaGhoaGhoaGhoaGhoaGhoaGhoaHxsWAI/kLIwIZhI/gX/eoJ/YcBIYwxYkhyZxgYM4aY5vAwYBaw+deSRvT/i8JcdIz5X+iAZ1+sV1ytj/rnA6/RaHmDl/5oUouRsRi17N67rzkE6JDZfxSwXIJz2PIbe99fBQIxA8UX3/Yv/ArnnFALQIXgiWidvw5h4LZ8pKIRbakzA6kEZlfYx2GFNvnBsWQcA6m1AIwp8VPLLwz3/WVm48BA0Z2TcEEtcwGg0TQp5/S3UYzLpKINN8Sh1KGs5KqjgD96wEKAGMTV7vSqL3H1/Fqvtg95GhROvYSbqbnMoEmppb51LO7+Xi35ddy9a9zf31/0hrMPzo7DdLF8UW/20SqFGEXlGFZjEAmGbBtL27jfw8PFCIX1P8YtUeGCU0rhb86zL1973dAAyQhhgZUNEOAATTsJBakzqWmtkKgkkTZJdn6b9WKM1lWUlHmG6p3WVbdWq02e7p+ULBr8KCRPc9uFwhZIPxfNpL1KYdVPRDn8Vqd/E8EKZLh05Sw9BCzhqP8FVuDqk8MfGO7bg3oZpQJpB7UXvsrbGmhTvA3I5V81tvFeQXUYj/evYSB/gFn1W1qV87aOAlCI5xQ2mvLlWdnaDauOSWgh4Ffg501BK62nbsiCPaVQLkEiB15lAb5vmg5PvJs4YGVDMXyTwd1LGLQoH70mjulV/wiD9dsjY5T+jrCSThsY/iOrgWzmL3HtvahPrI2fLD6xRB+9S6ED1zqkskmhonYr6Ex2lAZ3vREsiFJBRLDk4a/HjuCW5M8CHhypu+SrmFFCYGny1ggzvD3KkDMO75JSEZS4iFOH8MeRO46NFUsPQti9ryEW5M8ubdoff8JT7xpwO+jTfJYIt/IH2KSw7GUvw6KJdxuULmbE4FGGF661IMChTUWgZTap8z6UL1rdAG+VRNCS1Y5wyI4nE9UrbtLGW8MUaYRCtuxr4L++w+CTzM8y37sK7bYx6KF/A4WSj6TfLosMkM3CHhfvjy/1QK6WieksLRUQz8rd9fah2DDlzV1CyJ+rftNKRl1OnEt/Eiy9WMQeO6Bp2aTS7/XuzMoFQ0H9PjYKldViStvA3ykMd1BYMML7LXJG+EtczCDcpjpITGuuA8ERrghv/AQ+zd24A18vjWUR3upuHSNKQWHuoJAP2FgQK43HArSNlU2WXgZD4xtQB8EkqcIanvJKPUChNzHOt+PFz9fMl2/bf3yzZE6sEgqt5peCG4y91OeUzLUu4Z0YB1s9dOmqPPhNuMwxHUIdKvwfo+FCPBAeTn+kgsjlnIspdZ/BMK+4JAyz4V/NXQQ6JH17dC3THVUTGAuURBYZC63A4nvpCqJJBRQiGyZiCt/1noreenWmdgbbY0GYX7AXhU7T2zo+ePYI17r9RgVYzI0LHUjlsu3aMJjCspK3IcShfDyNA/RueW2wRSycvAiQHrWkHZ/wsYxWlmYUonbDau7Qg5aZ3IJ1pFYDPXF5reU00yGa34nVXPkVLOQIh/GTWYngu8cvBtqOmqum0/wtTwZtIAztvSi8NBWFmwNIAwmiEj4OKnP7zM+2x6U4eMxAnOVFqZWMH8C22Pg9xkQGbmPWRrW7+2Yu+SCs/Le3VfuEvwrHbJZTaIq+cQZut5i+uerFWjCgF9rBnMJMjThJvJYHM+lLD7QrtooIzEpSqKSwIBC0jT2l0GpsTUTknr6MbvE0I1RGCrB+oi0XMpt9ryhdRyyHN26lx8IC6Y7PyZEvg4HIsdoLPL8l7TRJrb/i9wAKbEAvcazSZUwdIi7Qgwu6u4HOxGxtEDPpGzPPBtXusZSGLk+/pJw8wPi28WgVUIhmFNKLXXkYoJCWUGiS7Qt5mczIIY5UZGBSNm8WBMaD60jxIdRPzuJ1d3cZ2J6mIndxmuL23bUBzVXPdgggmCizUWt/EaZT6bbTJfNUmZsUdA1eIXzdTa6M2BNXajWd9Qse6xMpBFmsZ0RJiONuhvcMDVPzUpkKKqZB6XTayLgeKCVGK1PpjM/nyGKPrIcPmxQmD7CMYfF+RaPk/XOSfpllgbAxljGAMalchSwSWVeK92BSwMsnUhjaGN1wdTOLjzbHxxdNU1lHmkawqEuzamB32ZkLi9mdSk96MXXWE6ZZ6qbC0yavqC4vux/Gy/6308yukFLSiE1acswJSGHb6CXZNUIP9wVZts+kUI2R5tOl51K1vX8u//QkvTKu9Yd7JHdBLX53zcozW7Yl6K1cAOXbs3ifxX82IUbsG9+T1R/616F8OITDP2+QHVTPuvBd2Du7xWjQK9Asn0whZldC3sx0Gqufg6WIhFqBTZNHbI8cJ8IBBGBXLFhO2KA+3xUpWfxHYJzDZSSNjdZaFoOfqTuDA1F3o8DOhw4ZyHzPiwvm9OkURioBRUwfr/ihMMvBbE2JqUy17xwKnDg7uIaAeznGG+6OjPkAo9dEeuWPxqtYU5vUnxHF0NSts0DllcBYoSv4QQE/h1CIP2Ahs9hXKSAQgWXpAdX3CIIBMkEvz+Sk98gqgtpC0s+ZJ/uQjY2/eakAwq3F4DqIUtC4YoBDb8P74TfzMhd7vX+WXgHcgw1f/qwV5ooPo7DML9yLQsOIWzMKr5cpxAFuUaWoaKu9Z1Z2A3aAU1LmUwNhvFULYu8Svs4ie00Tqiu8udEIg3rnvn87rEXT8X0/LmbnEArRR1AY5hQ2fbyiw9iUqyewRH3/Et0qwEZPubNOygogMq6y8Ik7TcvtGW1n82qnUp8Nx0KZN/fStPF1VAXFW1j1+mQKEY7TmRSulMXs0FMhAuVPzDiySo4D46VpFqtCuClNhwF75c6ljOaC0Za6gAWx56znYfZPrNQhw4Uv9pMXMkLXQs2UdFY/n8wyhP6w4Df3Gjstcapl2lxmEroZrHUnqbP4L7p5OaUevMGDap6fvZCBKyWF4JOtWORzks/i7vhqPwunpcZEMsiCKjimTYf3mNHbdrVlJkP7sLLxZ0uh0ZcUUpNPVz4Ps7wsorJKR+OulELaqqIAX1DqOE2wxsDlphA6oEpeWWlda/OZPtMvhKmFPF897tvSxyGaijwP1mHH9w3gdqNYEVIqgEGGJMvEciH8OSvgm9+hfy+F4OPDxFVuQPSXozJmPOXPw59PaLhiVbeIQIum/CIOEFaL10luGBuue9ULsjuHqcJPpRCDq+Xn0pYtL1gUhA1TFgbMbHgChWhSTKGZnMcBRjfSlllijFn4UuRAWn7cPsiteqfwt52NYsdTaNu28lWGKVzpqOL00hggErC8wUcDT+OU3rFnd/tCJiD1Twj8vEkmjZbzJW6DVStMiYlhYavXViwoNH8mhUbeCnKrbAaxhBcuSxsypsrTofT8pMbJvijQhTR7DmDgui8z3cTtBijurLdJvIPXD+so/DQKEav2ucrkUZrWVoNgpNI3FhGjfVI0hRiTraxYJJvI9GLkyAYdJ+mhtvGd08I4JpnukWpbnv0nURjW7zIui0IyMImYsRKaoB+KQup2d7QalUOGvtsWpjeUhmyYNi3wWegYVsCbIMXGm9/s2X02w4eak2FtC6KoPu2Nv1TAAlJCHId31gMQhFSei9KsdlJXrrORrpatJJW7WJYchp4g1CFWq2oE6E4UEggU9g6bw8dRCPZga2Mc5wkX0pVRvaU0+Ravp7KkZpIDX6bxSRRmmwGy1XSfGZhiVm1Id6ZpVuooMOrlLvjZYbf9QCmkdNvisByZD3H8mUftdTezgSxuqd8kKT6JQnezF457URBieMhUmhriQOhhB7Hnl+VlgcLjdOFeFJYGeErItvTTSPIoUWGd8wwCgddbl9F1LsYkPWTmm3CtZWbgxqYLixh8wKDWUuYDnCn4xui52+3OO4VH+oUnU7gTcFXjR5cF6w2Gcwrpaj3lYLgrCxni8HQi35VtRC0X1AjEeGOIJVmUlVdJxdlhGcsDKGQqW3paf6HlJOlzvBaDomtf+Yv0RClcpYZk5zGTzSysKy7BFlsW6cTg2+COVd7s8HPNiVlCoWoK2YKcu7zJ3lfbPlo3obFSuZxLoXPaVoJ59yHclBLRmAQhg5jIePTz1hHaqmLwbp75Ru/6GoWjn5hmKO0v9J1Lt7IFXJnkTHCrmXdNElIBT2154LlXlJY2Hu5EYyZ+pElo1o9lwgXczBs3f70QlyOMWVTmzygk05+YZiilsGl5b9Xt+D2aPJ69eK6YdbSBnn9E75uO2HUrN+l+7aC5r2OQvwiQQvdlCCsW4cAO+7LEJLO8913gNAB9vqv9VdQPCzOXKNwdnZR3uTqNov67vAoRRs9eRZXpwOEVo3cK27ZyrS3K6+v3PAjfeO6fJp2JIhD+xGMuy4KmQ7LvcqcKOoMgb0el2a/9PF1YnvinxQHefGQWPgxkp68cRhZs531UxtdZjPxY1s21E1eXsu+Nt77LYpvscmC1Tu5EW2byDK8MB93iBM0clhMeFmV+Zu0EYRuxV5+o3mtZ7VxQ+JQPIDdonOBaTzPqXHrTMJj1dBhTXyUFpTvTU32Ocbrbd4Dl+PNc61NrJwiHIQ7qrTzZSTrzyiwyRjx/1At8QqYG1ZLkYhqzfGMZQu0rPm95r/TVXgxjXF6fUuBXxr838a/aLAxjmJeaKP+OkOoBZkaXK5+H+tUTKMTx/9SxSgExudlm+DXLnReLun2pSxgaiZ1CaJl8+m8uP82Ql8Ats2OwnEJWne1rWqvrHYj3NkP4YkpzrWcR4qr2VIbr2c79UGB73Df7sI6UX0Aha7dyy8mjPOGAAqOTF4MgAjtl5+9ie0cQ3vF84wklhOelLraPIgTGB7O1sTd+AYVo3n+V/W2ESvPb7GpWT0vi43eMo/cuhEkLBD3ffGG5VyHEvGD+B9k+FPKRcVj16ZdQGNbzCIGPF35Nzc2dayFzdScYZbnhkMV3mUpKO47VpInK/iEbnxVVPZdBHXGwe/8rKGRVP7+lFy7u6eXGnqbxgcp8DSBAr6mwHJnOIjCtynO+H5Z9z3Z41ApOc3zw3X8FhUE4o7D13rU3ymWE8t4p1RMjCOqDijnf9ec3K1OkMlfooUJ37SlTSAra+sue5xeYExTmT2Ol72mvWLWxWxZNq8EJC7n6lMl90XITHzEJTyegFQIp92m+AbAc4PR77b1Pz5jjA1OuxNtvDTDjOpdCq7HoALfZ2az8Js5POYWnX7mcFTeJaSUNtccKAr14cLmHDDqCipvDw6MPTLnuS6HcwKOmbLXCxaLF1bm2r0xPoDD256lAasouGtVeGbIxT3dtyjNVfbYTHq5GPnQh70vhq2oOIvRi0dQAPnZP0HyvbTo09moMQmrHHATeS7cNruQosm+H8Kc2eEuyo531hUnKM9W5FJpisn2b/Y7n+fzohH1V77yZnaP5tmSEUZxa+WIjA1CRe3DIIIrofUMrW5vxdV5LvjQrN8qOwDtCf+zMss5xuDk2fo05qas1Sxz+jNiCQpw3rEutz1/2CfTl4RP9RNxhe2XnwDSR8m2mDwyrzBlDr1lJ68IyqD88xhv4FVI4yKN/CPAWW3TU1va7GYeUv+xhFrHRPueUJC/L3WDMCMYuMd2v1dlxFciYrNZGi2G5r3ueALOKz96DBzHw3/n5CkQ0VlqT1FFCRLUfUvESl5+FxOR+Gk8lapNBPDtPRo1i1Frc7eF8GzkY4262hxZU0xcv4VHZys+mELObysx9Wd8MilkN1qDarkx5a1i6lhFrP4q8quRcdqrLp3uwuhflEY4s+Uf+ngVaakoD/h9AodHu5/vEZP/92moFmZkIZ+F8jMqmw67vOJ31UIhGtNxiwlhg5BvzbCy7and71Orxuf/2LswH4aDyUymF1PQKy08M5Scb4a6naicQw0r/bzUjggPMXiE6g9EoJY4YRHJ7HUbL5//JdhJwVMJRyonc3Q6DNb3rlSNCbJnyR7JjArMopXsxSCEqitTaP4VCcnIFjxZSqIQCGdXHQWVWLqdWcrdF2dnsNVvIIXXHEQsCFiJ7VgOEkUJYnPFjqzLLp/pEXFxvfW751qJ0X3eGp9FRpmSFQlpwyMreFDpWBxchrkaT3iBVa09Z46boxPbmpOUhKxVz3l9iZdlg9JZnsPIyKnyFH/opl26LmjQRP+ICP5wFIIP72WKSgTtzdEz0cRTKBmC/CJkQnMj1S/JqBjAoK+WbN8GoniYq3wB0W0SI1OtNozh/E9X6zXkquCPNtsolULcX2uHWDCmEkT7deehU/qrEuKrOWjuVwg/o7Co4PG5lvlT6ufxl60k/+YSqY7llff5rYJ2F6zppq+EIt8JnRTkgWB7E0poUn+j5u2vubFywHFVbuTrOm1nM+POa42bTNrn7XNyWDiqsfZPl9an8eiKPnwKBchxz9X0kP2JWeLRseA3+564Tf+BFWa43MYJTkpSfT6HIXmoFh+blt5GG5zzzl/s2QPWpLP4ygbwxYay4WhUwVD3nO2p2jsNBBMH7OaV8LU9LUlsw6MWu4hkOW9udmt+3bI1eQ36Go2Nx4Z/XVSK56H2hfDty9yVLrKX2F2t+gq3KBFpCtEZYdkcUvnfMIHau/3Cl87N2wKUjz5BUHXIJfRrODsQ6kLilCWN14JRskx7szDCFqTpw1HIPOohUqq2mPABTiKTyMtpoVi+YWBDduRAC0xVtaslmEnkeX2d6vVt9IRSg4Zn0IOdnCM9lGiZMTJG0etXize77QkphwrmAx/ttlxSydksee5vx/129Latmu47DFcJJvfPeQyylQ3q/e0wMsfBxnLpCOtrzh6eU84rvXdVQEJYfBaQmJo+lNsJ/+g2fLzmIljyHkov0rgve93ZzfghACuO6QrTlILJVyMOX5ZX/3LK1z+tRfQeGVQzunTQiqPgw8xUwebyZEf/TO/f8ijqPGdhLvfHZpCpDFrTHKevImEVFOHo8Gzcc1S4Ko2SNi/5rBO9Snh3w4Yd+/xuBr6tR/XYyqUfV7YHIHmAMt+OhHOYWXucR2f3/XIDPwtqLJWuj4NgYIv/vTuaD7nGS0H8NpM2wQSvKQBsCZGyg4zoQZZjOZJer/P8Cjo/l/htwdBD2QeNoaGhoaGhoaGhoaGhoaGhoaGhoaGhoaGhoaGhoaGhoaGhoaGhoaGhoaGhoaGhofDj+D8YRo9gYNFKNAAAAAElFTkSuQmCC;container=0;" vertex="1" parent="1">
          <mxGeometry x="304" y="-36" width="41.02" height="20" as="geometry" />
        </mxCell>
        <mxCell id="FxP8xfBwRRLJs2oWTBeH-66" style="edgeStyle=orthogonalEdgeStyle;rounded=0;orthogonalLoop=1;jettySize=auto;html=1;entryX=0;entryY=0.25;entryDx=0;entryDy=0;strokeColor=light-dark(#4154e7, #ededed);" edge="1" parent="1" source="FxP8xfBwRRLJs2oWTBeH-17" target="FxP8xfBwRRLJs2oWTBeH-34">
          <mxGeometry relative="1" as="geometry" />
        </mxCell>
        <mxCell id="FxP8xfBwRRLJs2oWTBeH-17" value="AsentarPago" style="rounded=1;whiteSpace=wrap;html=1;" vertex="1" parent="1">
          <mxGeometry x="338.98" y="20" width="170" height="30" as="geometry" />
        </mxCell>
        <mxCell id="FxP8xfBwRRLJs2oWTBeH-19" value="Centralizador" style="sketch=0;outlineConnect=0;gradientColor=none;html=1;whiteSpace=wrap;fontSize=12;fontStyle=1;shape=mxgraph.aws4.group;grIcon=mxgraph.aws4.group_on_premise;strokeColor=light-dark(#e28128, #72777f);fillColor=none;verticalAlign=top;align=center;spacingLeft=30;fontColor=light-dark(#0a0a0a, #72777f);dashed=0;" vertex="1" parent="1">
          <mxGeometry x="740" y="163" width="360" height="200" as="geometry" />
        </mxCell>
        <mxCell id="FxP8xfBwRRLJs2oWTBeH-32" value="" style="rounded=1;whiteSpace=wrap;html=1;" vertex="1" parent="1">
          <mxGeometry x="780" y="194" width="200" height="90" as="geometry" />
        </mxCell>
        <mxCell id="FxP8xfBwRRLJs2oWTBeH-33" value="InvoiceQueryByReference" style="rounded=1;whiteSpace=wrap;html=1;" vertex="1" parent="1">
          <mxGeometry x="795" y="242" width="170" height="30" as="geometry" />
        </mxCell>
        <mxCell id="FxP8xfBwRRLJs2oWTBeH-34" value="InvoiceMultiPayment" style="rounded=1;whiteSpace=wrap;html=1;" vertex="1" parent="1">
          <mxGeometry x="789.98" y="302" width="190.02" height="30" as="geometry" />
        </mxCell>
        <mxCell id="FxP8xfBwRRLJs2oWTBeH-35" value="InvoiceQueryByCustomer" style="rounded=1;whiteSpace=wrap;html=1;" vertex="1" parent="1">
          <mxGeometry x="795" y="204" width="170" height="30" as="geometry" />
        </mxCell>
        <mxCell id="FxP8xfBwRRLJs2oWTBeH-36" style="edgeStyle=orthogonalEdgeStyle;rounded=0;orthogonalLoop=1;jettySize=auto;html=1;exitX=0.99;exitY=0.411;exitDx=0;exitDy=0;exitPerimeter=0;" edge="1" parent="1" source="FxP8xfBwRRLJs2oWTBeH-25">
          <mxGeometry relative="1" as="geometry">
            <mxPoint x="580" y="407.5" as="sourcePoint" />
            <mxPoint x="780" y="240" as="targetPoint" />
            <Array as="points">
              <mxPoint x="528" y="240" />
              <mxPoint x="655" y="240" />
              <mxPoint x="655" y="241" />
            </Array>
          </mxGeometry>
        </mxCell>
        <mxCell id="FxP8xfBwRRLJs2oWTBeH-37" value="" style="sketch=0;outlineConnect=0;fontColor=#232F3E;gradientColor=none;fillColor=#01A88D;strokeColor=none;dashed=0;verticalLabelPosition=bottom;verticalAlign=top;align=center;html=1;fontSize=12;fontStyle=0;aspect=fixed;shape=mxgraph.aws4.transfer_for_sftp_resource;" vertex="1" parent="1">
          <mxGeometry x="1170" y="201" width="62.36" height="64" as="geometry" />
        </mxCell>
        <mxCell id="FxP8xfBwRRLJs2oWTBeH-38" value="" style="rounded=1;whiteSpace=wrap;html=1;" vertex="1" parent="1">
          <mxGeometry x="1300" y="176" width="100" height="120" as="geometry" />
        </mxCell>
        <mxCell id="FxP8xfBwRRLJs2oWTBeH-40" value="" style="whiteSpace=wrap;html=1;shape=mxgraph.basic.document" vertex="1" parent="1">
          <mxGeometry x="1330" y="213.5" width="40" height="45" as="geometry" />
        </mxCell>
        <mxCell id="FxP8xfBwRRLJs2oWTBeH-41" value="Cartera MP" style="text;html=1;align=center;verticalAlign=middle;whiteSpace=wrap;rounded=0;" vertex="1" parent="1">
          <mxGeometry x="1320" y="260" width="60" height="30" as="geometry" />
        </mxCell>
        <mxCell id="FxP8xfBwRRLJs2oWTBeH-44" value="" style="shape=cylinder3;whiteSpace=wrap;html=1;boundedLbl=1;backgroundOutline=1;size=15;" vertex="1" parent="1">
          <mxGeometry x="1020" y="210" width="40" height="63" as="geometry" />
        </mxCell>
        <mxCell id="FxP8xfBwRRLJs2oWTBeH-45" style="edgeStyle=orthogonalEdgeStyle;rounded=0;orthogonalLoop=1;jettySize=auto;html=1;entryX=1;entryY=0;entryDx=0;entryDy=23.25;entryPerimeter=0;" edge="1" parent="1" source="FxP8xfBwRRLJs2oWTBeH-37" target="FxP8xfBwRRLJs2oWTBeH-44">
          <mxGeometry relative="1" as="geometry" />
        </mxCell>
        <mxCell id="FxP8xfBwRRLJs2oWTBeH-42" style="edgeStyle=orthogonalEdgeStyle;rounded=0;orthogonalLoop=1;jettySize=auto;html=1;" edge="1" parent="1" source="FxP8xfBwRRLJs2oWTBeH-40" target="FxP8xfBwRRLJs2oWTBeH-37">
          <mxGeometry relative="1" as="geometry" />
        </mxCell>
        <mxCell id="FxP8xfBwRRLJs2oWTBeH-48" style="edgeStyle=orthogonalEdgeStyle;rounded=0;orthogonalLoop=1;jettySize=auto;html=1;" edge="1" parent="1" source="FxP8xfBwRRLJs2oWTBeH-47" target="FxP8xfBwRRLJs2oWTBeH-40">
          <mxGeometry relative="1" as="geometry" />
        </mxCell>
        <mxCell id="FxP8xfBwRRLJs2oWTBeH-47" value="Usuario" style="shape=umlActor;verticalLabelPosition=bottom;verticalAlign=top;html=1;outlineConnect=0;" vertex="1" parent="1">
          <mxGeometry x="1480" y="215" width="30" height="60" as="geometry" />
        </mxCell>
        <mxCell id="FxP8xfBwRRLJs2oWTBeH-54" style="edgeStyle=orthogonalEdgeStyle;rounded=0;orthogonalLoop=1;jettySize=auto;html=1;entryX=0.5;entryY=1;entryDx=0;entryDy=0;entryPerimeter=0;" edge="1" parent="1" source="FxP8xfBwRRLJs2oWTBeH-34" target="FxP8xfBwRRLJs2oWTBeH-44">
          <mxGeometry relative="1" as="geometry" />
        </mxCell>
        <mxCell id="FxP8xfBwRRLJs2oWTBeH-56" style="edgeStyle=orthogonalEdgeStyle;rounded=0;orthogonalLoop=1;jettySize=auto;html=1;entryX=0.987;entryY=0.531;entryDx=0;entryDy=0;entryPerimeter=0;" edge="1" parent="1" source="FxP8xfBwRRLJs2oWTBeH-44" target="FxP8xfBwRRLJs2oWTBeH-32">
          <mxGeometry relative="1" as="geometry" />
        </mxCell>
        <mxCell id="FxP8xfBwRRLJs2oWTBeH-57" value="SSAS" style="rounded=1;whiteSpace=wrap;html=1;verticalAlign=top;fontStyle=1;fontSize=14;" vertex="1" parent="1">
          <mxGeometry x="760" y="430" width="270" height="170" as="geometry" />
        </mxCell>
        <mxCell id="FxP8xfBwRRLJs2oWTBeH-58" value="RegistrarPago" style="rounded=1;whiteSpace=wrap;html=1;" vertex="1" parent="1">
          <mxGeometry x="795" y="480" width="190.02" height="30" as="geometry" />
        </mxCell>
        <mxCell id="FxP8xfBwRRLJs2oWTBeH-60" style="edgeStyle=orthogonalEdgeStyle;rounded=0;orthogonalLoop=1;jettySize=auto;html=1;entryX=0;entryY=0.5;entryDx=0;entryDy=0;" edge="1" parent="1" source="FxP8xfBwRRLJs2oWTBeH-9" target="FxP8xfBwRRLJs2oWTBeH-58">
          <mxGeometry relative="1" as="geometry">
            <Array as="points">
              <mxPoint x="425" y="495" />
            </Array>
          </mxGeometry>
        </mxCell>
        <mxCell id="FxP8xfBwRRLJs2oWTBeH-65" style="edgeStyle=orthogonalEdgeStyle;rounded=0;orthogonalLoop=1;jettySize=auto;html=1;entryX=0;entryY=0.5;entryDx=0;entryDy=0;strokeColor=light-dark(#4154e7, #ededed);" edge="1" parent="1" source="FxP8xfBwRRLJs2oWTBeH-11" target="FxP8xfBwRRLJs2oWTBeH-17">
          <mxGeometry relative="1" as="geometry">
            <Array as="points">
              <mxPoint x="-40" y="35" />
            </Array>
          </mxGeometry>
        </mxCell>
        <mxCell id="FxP8xfBwRRLJs2oWTBeH-67" style="edgeStyle=orthogonalEdgeStyle;rounded=0;orthogonalLoop=1;jettySize=auto;html=1;entryX=0;entryY=0.25;entryDx=0;entryDy=0;strokeColor=light-dark(#4154e7, #ededed);" edge="1" parent="1" source="FxP8xfBwRRLJs2oWTBeH-17" target="FxP8xfBwRRLJs2oWTBeH-58">
          <mxGeometry relative="1" as="geometry">
            <Array as="points">
              <mxPoint x="424" y="60" />
              <mxPoint x="610" y="60" />
              <mxPoint x="610" y="488" />
            </Array>
          </mxGeometry>
        </mxCell>
        <mxCell id="FxP8xfBwRRLJs2oWTBeH-68" value="ERP" style="rounded=1;whiteSpace=wrap;html=1;verticalAlign=top;fontStyle=1;fontSize=14;" vertex="1" parent="1">
          <mxGeometry x="1106" y="430" width="270" height="170" as="geometry" />
        </mxCell>
        <mxCell id="FxP8xfBwRRLJs2oWTBeH-69" value="Notificación Contable" style="rounded=1;whiteSpace=wrap;html=1;" vertex="1" parent="1">
          <mxGeometry x="1145" y="480" width="190.02" height="30" as="geometry" />
        </mxCell>
        <mxCell id="FxP8xfBwRRLJs2oWTBeH-70" style="edgeStyle=orthogonalEdgeStyle;rounded=0;orthogonalLoop=1;jettySize=auto;html=1;entryX=0;entryY=0.5;entryDx=0;entryDy=0;" edge="1" parent="1" source="FxP8xfBwRRLJs2oWTBeH-58" target="FxP8xfBwRRLJs2oWTBeH-69">
          <mxGeometry relative="1" as="geometry" />
        </mxCell>
      </root>
    </mxGraphModel>
  </diagram>
</mxfile>
